HIERARCHY
ROOT Hips
{
  OFFSET -178.732 97.4303 -394.42
  CHANNELS 6 Xposition Yposition Zposition Zrotation Xrotation Yrotation
  JOINT RightUpLeg
  {
    OFFSET -8.9458 -8.66707 0.101652
    CHANNELS 3 Zrotation Xrotation Yrotation
    JOINT RightLeg
    {
      OFFSET 0 -44.4227 1.3727
      CHANNELS 3 Zrotation Xrotation Yrotation
      JOINT RightFoot
      {
        OFFSET 0.253549 -42.0924 -1.46059
        CHANNELS 3 Zrotation Xrotation Yrotation
        JOINT RightToes
        {
          OFFSET 0.04 -4.41509 8.4991
          CHANNELS 3 Zrotation Xrotation Yrotation
          End Site
          {
            OFFSET -0.08 -0.137448 9.77979
          }
        }
      }
    }
  }
  JOINT Spine
  {
    OFFSET 0 11.8905 0
    CHANNELS 3 Zrotation Xrotation Yrotation
    JOINT Spine1
    {
      OFFSET 0 25.6574 0.127663
      CHANNELS 3 Zrotation Xrotation Yrotation
      JOINT HEad
      {
        OFFSET 0 8.73416 0.011341
        CHANNELS 3 Zrotation Xrotation Yrotation
        End Site
        {
          OFFSET -0.29 12.7742 2.51395
        }
      }
      JOINT LeftShoulder1
      {
        OFFSET 8.99 -0.362252 -0.22
        CHANNELS 3 Zrotation Xrotation Yrotation
        JOINT LeftArm
        {
          OFFSET 10.2827 -0.00338 0.322123
          CHANNELS 3 Zrotation Xrotation Yrotation
          JOINT LeftForeArm
          {
            OFFSET 32.7669 0.099144 -1.42434
            CHANNELS 3 Zrotation Xrotation Yrotation
            JOINT LeftHand
            {
              OFFSET 27.5643 0.085362 1.02216
              CHANNELS 3 Zrotation Xrotation Yrotation
              End Site
              {
                OFFSET 16.7443 -0.6 1.50291
              }
            }
          }
        }
      }
      JOINT RightShoulder
      {
        OFFSET -8.99 -0.362252 -0.22
        CHANNELS 3 Zrotation Xrotation Yrotation
        JOINT RightArm
        {
          OFFSET -10.2827 -0.00338 0.322123
          CHANNELS 3 Zrotation Xrotation Yrotation
          JOINT RightForeArm
          {
            OFFSET -32.8971 0.099144 -1.42434
            CHANNELS 3 Zrotation Xrotation Yrotation
            JOINT RightHand
            {
              OFFSET -27.4921 0.085362 1.02216
              CHANNELS 3 Zrotation Xrotation Yrotation
              End Site
              {
                OFFSET -16.6312 -0.6 1.50291
              }
            }
          }
        }
      }
    }
  }
  JOINT LeftUpLeg
  {
    OFFSET 8.9458 -8.66707 0.101652
    CHANNELS 3 Zrotation Xrotation Yrotation
    JOINT LeftLeg
    {
      OFFSET 0 -44.4227 1.3727
      CHANNELS 3 Zrotation Xrotation Yrotation
      JOINT LeftFoot
      {
        OFFSET -0.253549 -42.0924 -1.46059
        CHANNELS 3 Zrotation Xrotation Yrotation
        JOINT LeftToes
        {
          OFFSET -0.04 -4.41509 8.4991
          CHANNELS 3 Zrotation Xrotation Yrotation
          End Site
          {
            OFFSET 0.08 -0.047448 9.77979
          }
        }
      }
    }
  }
}
MOTION
Frames:	8
Frame Time:	0.0166667
-192.306 94.5718 -405.004 -1.854 13.0653 -170.922 -17.6769 7.50352 3.29017 28.0388 31.7837 -47.6387 -31.2423 -0.136562 -1.27155 0.0462048 0.000533403 0.662642 -7.85876 29.3195 -5.54055 0.0609183 0.0727999 -0.0743815 12.3903 -0.755107 2.08117 3.18055e-015 -4.77083e-015 -5.96354e-016 -127.473 -57.092 -96.8821 -64.4123 46.0663 -41.9183 12.1801 19.2602 -15.5404 21.1784 8.12525 -9.63681 107.057 -13.1378 68.6163 15.2706 57.2908 104.549 17.0524 21.7365 4.72265 27.8597 -22.3838 -16.1637 -43.9925 24.3618 69.2336 -41.3421 -1.01732 -1.18361 -1.18447e-009 1.5602e-007 -4.8713e-009 
-192.325 94.4228 -404.969 -1.46592 13.6104 -171.184 -16.8798 7.55323 2.6607 26.9737 31.8715 -48.318 -32.3705 1.04721 -1.13765 0.0462048 0.000533403 0.662642 -5.06778 30.6189 -10.2408 0.0559088 0.0780099 -0.0555514 10.6442 -1.61326 6.1958 4.41391e-032 -3.18055e-015 7.95139e-016 -136.165 -59.6579 -105.358 -66.7182 48.1549 -40.6432 14.5039 18.6601 -15.6954 19.9701 8.14743 -6.09304 108.174 -9.15997 73.7117 14.7608 57.925 102.504 14.7517 20.0537 -1.13685 28.6552 -23.3727 -12.8528 -43.4836 22.1451 61.5231 -12.9549 -0.409531 -0.745879 -1.18446e-009 1.5602e-007 -4.87131e-009 
-192.738 93.8705 -405.204 -0.172937 14.6528 -173.808 -16.0742 6.99996 4.28761 26.9347 33.0516 -49.2793 -33.2002 1.50711 -1.06845 0.0462048 0.000533403 0.662642 -2.6896 31.4877 -12.1337 -0.00586943 0.00931001 0.0230801 8.99209 -1.97262 9.7224 3.97569e-016 3.18055e-015 1.59028e-015 -145.295 -61.7071 -114.199 -69.5309 50.2637 -38.9915 14.0449 17.996 -16.4137 18.6584 8.56459 -2.90508 108.566 -6.92294 76.3501 14.4158 58.3561 101.139 15.6834 17.9806 -1.02458 29.0145 -22.1463 -10.0918 -43.2012 20.001 55.9498 14.8291 -1.52045 -0.136013 -1.18446e-009 1.5602e-007 -4.87131e-009 
-193.445 93.2698 -405.656 1.13232 15.5504 -176.339 -15.624 6.24687 5.79213 27.3012 34.7381 -50.112 -32.9172 1.73369 -1.00353 0.0462048 0.000533403 0.662642 -0.408181 31.8137 -13.7486 -0.0131393 0.01014 0.0273503 7.32781 -2.00134 12.7878 3.97569e-016 0 -3.18055e-015 -154.486 -63.2058 -123.06 -72.4386 52.2922 -37.3426 15.5406 17.4871 -16.6145 17.15 9.17796 -0.0872962 108.727 -5.70253 77.5609 14.1508 58.51 100.121 14.3207 18.1397 -3.08598 31.6162 -19.0865 -9.48143 -42.1346 17.2245 51.184 -10.228 -3.88294 -0.238971 -1.18447e-009 1.5602e-007 -4.87131e-009 
-194.312 92.8166 -406.355 2.41409 16.2995 -178.784 -15.2139 5.60874 7.10644 27.5536 36.1923 -50.4103 -32.7379 2.13163 -0.937008 0.0462048 0.000533403 0.662642 1.73564 31.6627 -15.0007 -0.0160287 0.0109747 0.0256308 5.70184 -1.69735 15.3145 -1.98785e-015 -4.77083e-015 3.18055e-015 -162.854 -64.308 -131.085 -75.2097 54.2903 -35.9101 15.3831 16.8872 -17.1295 15.6084 9.94905 2.18125 108.798 -5.04874 77.911 13.8878 58.4817 99.4299 14.9684 17.64 -1.94861 31.8161 -18.7288 -9.73864 -41.4924 14.9227 49.9802 2.09278 -3.36517 -0.310766 -1.18446e-009 1.5602e-007 -4.87132e-009 
-195.361 92.2867 -407.37 3.64618 16.8959 178.861 -15.0658 4.92572 8.28525 28.1419 37.8925 -50.6036 -32.4444 2.30383 -0.903203 0.0462048 0.000533403 0.662642 3.71944 31.1049 -15.849 -0.0179469 0.0118889 0.0233156 4.13413 -1.11119 17.3168 -1.59028e-015 -1.59028e-015 4.77083e-015 -169.148 -64.8866 -137.355 -76.6442 54.3258 -34.6173 16.3329 16.9379 -16.9403 14.087 10.8322 3.90959 108.857 -4.72506 77.8078 13.7039 58.2748 98.8657 14.3544 18.2432 -2.49959 32.31 -18.1917 -11.3822 -40.1409 12.9359 50.4211 -2.84753 -4.02588 -0.509796 -1.18446e-009 1.5602e-007 -4.87131e-009 
-196.5 91.8232 -408.612 4.80518 17.3352 176.613 -15.0487 4.37855 9.30039 28.6424 39.4662 -50.3988 -32.0976 2.49473 -0.870257 0.0462048 0.000533403 0.662642 5.52894 30.205 -16.2876 -0.0190072 0.0128445 0.0206777 2.65188 -0.289414 18.8228 -0 -4.77083e-015 -0 -174.137 -65.4928 -142.265 -77.8011 54.4403 -33.5839 16.344 16.8865 -16.9232 12.6305 11.8036 5.10692 108.936 -4.58057 77.4776 13.5998 57.9726 98.4229 14.9822 18.2845 -1.38222 32.0161 -18.7381 -13.941 -38.7691 11.8186 52.7637 -0.529888 -4.17628 -0.482374 -1.18446e-009 1.5602e-007 -4.87132e-009 
-197.702 91.376 -410.044 5.8677 17.6151 174.498 -15.206 3.92577 10.1608 29.1194 40.9702 -49.9068 -31.6572 2.59949 -0.849845 0.0462048 0.000533403 0.662642 7.14665 29.0274 -16.3296 -0.0193231 0.0138032 0.0178838 1.29271 0.722787 19.8635 3.97569e-016 1.59028e-015 -3.18055e-015 -177.921 -66.1958 -145.9 -78.7462 54.6313 -32.7117 17.1031 16.7992 -16.6433 11.252 12.8452 5.82103 109.071 -4.54147 77.0929 13.619 57.5927 97.9893 14.8829 18.8609 -1.46726 31.4419 -19.6312 -17.4852 -37.1081 11.4408 56.3494 -2.85338 -4.30397 -0.610922 -1.18446e-009 1.5602e-007 -4.87131e-009 
